<svg xmlns="http://www.w3.org/2000/svg" xmlns:xlink="http://www.w3.org/1999/xlink" width="200" zoomAndPan="magnify" viewBox="0 0 150 44.999999" height="60" preserveAspectRatio="xMidYMid meet" version="1.0"><defs><g/><clipPath id="d1a82ceebb"><path d="M 3.09375 9.039062 L 31.078125 9.039062 L 31.078125 35.960938 L 3.09375 35.960938 Z M 3.09375 9.039062 " clip-rule="nonzero"/></clipPath><clipPath id="5424ab3097"><path d="M 0.09375 0.0390625 L 28.078125 0.0390625 L 28.078125 26.960938 L 0.09375 26.960938 Z M 0.09375 0.0390625 " clip-rule="nonzero"/></clipPath><clipPath id="12d522b7ae"><rect x="0" width="29" y="0" height="27"/></clipPath><clipPath id="bf5bce8d76"><path d="M 34.027344 9.039062 L 146.890625 9.039062 L 146.890625 35.957031 L 34.027344 35.957031 Z M 34.027344 9.039062 " clip-rule="nonzero"/></clipPath><clipPath id="6828880478"><path d="M 6.660156 11.417969 L 27.660156 11.417969 L 27.660156 32.417969 L 6.660156 32.417969 Z M 6.660156 11.417969 " clip-rule="nonzero"/></clipPath><clipPath id="1f67f61ab5"><path d="M 6.660156 12.734375 L 27.660156 12.734375 L 27.660156 33.734375 L 6.660156 33.734375 Z M 6.660156 12.734375 " clip-rule="nonzero"/></clipPath><clipPath id="37e8f2c1b8"><path d="M 0.660156 0.734375 L 21.660156 0.734375 L 21.660156 21.582031 L 0.660156 21.582031 Z M 0.660156 0.734375 " clip-rule="nonzero"/></clipPath><clipPath id="91b71eb2f2"><rect x="0" width="22" y="0" height="22"/></clipPath></defs><g clip-path="url(#d1a82ceebb)"><g transform="matrix(1, 0, 0, 1, 3, 9)"><g clip-path="url(#12d522b7ae)"><g clip-path="url(#5424ab3097)"><path fill="#ffffff" d="M 0.09375 0.0390625 L 28.070312 0.0390625 L 28.070312 26.960938 L 0.09375 26.960938 Z M 0.09375 0.0390625 " fill-opacity="1" fill-rule="nonzero"/></g></g></g></g><g clip-path="url(#bf5bce8d76)"><path stroke-linecap="butt" transform="matrix(0.75, 0, 0, 0.75, 34.028979, 9.037379)" fill="none" stroke-linejoin="miter" d="M -0.00218046 0.0022441 L 150.482204 0.0022441 L 150.482204 35.892871 L -0.00218046 35.892871 Z M -0.00218046 0.0022441 " stroke="#ffffff" stroke-width="4" stroke-opacity="1" stroke-miterlimit="4"/></g><g clip-path="url(#6828880478)"><path fill="#000000" d="M 6.660156 32.417969 L 9.589844 32.417969 C 9.589844 22.453125 17.695312 14.347656 27.660156 14.347656 L 27.660156 11.417969 C 16.082031 11.417969 6.660156 20.835938 6.660156 32.417969 Z M 6.660156 32.417969 " fill-opacity="1" fill-rule="nonzero"/></g><g clip-path="url(#1f67f61ab5)"><g transform="matrix(1, 0, 0, 1, 6, 12)"><g clip-path="url(#91b71eb2f2)"><g clip-path="url(#37e8f2c1b8)"><path fill="#000000" d="M 0.660156 0.582031 L 3.589844 0.582031 C 3.589844 10.546875 11.695312 18.652344 21.660156 18.652344 L 21.660156 21.582031 C 10.082031 21.582031 0.660156 12.160156 0.660156 0.582031 Z M 0.660156 0.582031 " fill-opacity="1" fill-rule="nonzero"/></g></g></g></g><g fill="#ffffff" fill-opacity="1"><g transform="translate(40.476411, 26.884198)"><g><path d="M -0.0625 0 L 4.390625 -10.84375 L 7 -10.84375 L 11.390625 0 L 8.96875 0 L 7.859375 -2.84375 L 3.390625 -2.84375 L 2.28125 0 Z M 4.09375 -4.640625 L 7.1875 -4.640625 L 5.65625 -8.640625 Z M 4.09375 -4.640625 "/></g></g></g><g fill="#ffffff" fill-opacity="1"><g transform="translate(51.80811, 26.884198)"><g><path d="M 0.96875 0 L 0.96875 -10.84375 L 5.140625 -10.84375 C 5.941406 -10.84375 6.691406 -10.703125 7.390625 -10.421875 C 8.097656 -10.140625 8.707031 -9.753906 9.21875 -9.265625 C 9.726562 -8.785156 10.128906 -8.207031 10.421875 -7.53125 C 10.722656 -6.863281 10.875 -6.148438 10.875 -5.390625 C 10.875 -4.640625 10.722656 -3.929688 10.421875 -3.265625 C 10.128906 -2.609375 9.726562 -2.039062 9.21875 -1.5625 C 8.707031 -1.082031 8.097656 -0.703125 7.390625 -0.421875 C 6.691406 -0.140625 5.941406 0 5.140625 0 Z M 5.125 -8.84375 L 3.21875 -8.84375 L 3.21875 -2 L 5.125 -2 C 5.601562 -2 6.050781 -2.085938 6.46875 -2.265625 C 6.882812 -2.441406 7.242188 -2.679688 7.546875 -2.984375 C 7.859375 -3.285156 8.101562 -3.640625 8.28125 -4.046875 C 8.457031 -4.460938 8.546875 -4.910156 8.546875 -5.390625 C 8.546875 -5.867188 8.457031 -6.320312 8.28125 -6.75 C 8.101562 -7.175781 7.859375 -7.539062 7.546875 -7.84375 C 7.242188 -8.15625 6.882812 -8.398438 6.46875 -8.578125 C 6.050781 -8.753906 5.601562 -8.84375 5.125 -8.84375 Z M 5.125 -8.84375 "/></g></g></g><g fill="#ffffff" fill-opacity="1"><g transform="translate(62.922943, 26.884198)"><g><path d="M 5.15625 0 L 2.796875 0 L 0.40625 -10.84375 L 2.703125 -10.84375 L 4.1875 -3.484375 L 6.296875 -10.84375 L 8.40625 -10.84375 L 10.515625 -3.515625 L 11.984375 -10.84375 L 14.21875 -10.84375 L 11.8125 0 L 9.453125 0 L 7.3125 -7.578125 Z M 5.15625 0 "/></g></g></g><g fill="#ffffff" fill-opacity="1"><g transform="translate(76.560786, 26.884198)"><g><path d="M -0.0625 0 L 4.390625 -10.84375 L 7 -10.84375 L 11.390625 0 L 8.96875 0 L 7.859375 -2.84375 L 3.390625 -2.84375 L 2.28125 0 Z M 4.09375 -4.640625 L 7.1875 -4.640625 L 5.65625 -8.640625 Z M 4.09375 -4.640625 "/></g></g></g><g fill="#ffffff" fill-opacity="1"><g transform="translate(87.892485, 26.884198)"><g><path d="M 0.96875 0 L 0.96875 -10.84375 L 3.21875 -10.84375 L 3.21875 0 Z M 0.96875 0 "/></g></g></g><g fill="#ffffff" fill-opacity="1"><g transform="translate(92.103167, 26.884198)"><g><path d="M 0.28125 -8.859375 L 0.28125 -10.84375 L 9.8125 -10.84375 L 9.8125 -8.859375 L 6.171875 -8.859375 L 6.171875 0 L 3.9375 0 L 3.9375 -8.859375 Z M 0.28125 -8.859375 "/></g></g></g><g fill="#ffffff" fill-opacity="1"><g transform="translate(102.19642, 26.884198)"><g><path d="M 0.96875 0 L 0.96875 -10.84375 L 3.21875 -10.84375 L 3.21875 -6.484375 L 8.203125 -6.484375 L 8.203125 -10.84375 L 10.453125 -10.84375 L 10.453125 0 L 8.203125 0 L 8.203125 -4.421875 L 3.21875 -4.421875 L 3.21875 0 Z M 0.96875 0 "/></g></g></g><g fill="#ffffff" fill-opacity="1"><g transform="translate(113.636483, 26.884198)"><g/></g></g><g fill="#ffffff" fill-opacity="1"><g transform="translate(116.748051, 26.884198)"><g><path d="M 0.046875 -1.71875 L 1.328125 -3.328125 C 1.960938 -2.785156 2.570312 -2.382812 3.15625 -2.125 C 3.738281 -1.875 4.351562 -1.75 5 -1.75 C 5.675781 -1.75 6.210938 -1.875 6.609375 -2.125 C 7.015625 -2.375 7.21875 -2.703125 7.21875 -3.109375 C 7.21875 -3.484375 7.078125 -3.773438 6.796875 -3.984375 C 6.523438 -4.191406 6.070312 -4.34375 5.4375 -4.4375 L 3.28125 -4.8125 C 2.351562 -4.96875 1.648438 -5.289062 1.171875 -5.78125 C 0.691406 -6.28125 0.453125 -6.925781 0.453125 -7.71875 C 0.453125 -8.726562 0.832031 -9.523438 1.59375 -10.109375 C 2.363281 -10.703125 3.40625 -11 4.71875 -11 C 5.507812 -11 6.300781 -10.863281 7.09375 -10.59375 C 7.894531 -10.320312 8.597656 -9.945312 9.203125 -9.46875 L 7.984375 -7.796875 C 7.410156 -8.242188 6.84375 -8.570312 6.28125 -8.78125 C 5.726562 -9 5.15625 -9.109375 4.5625 -9.109375 C 3.96875 -9.109375 3.488281 -8.992188 3.125 -8.765625 C 2.757812 -8.546875 2.578125 -8.25 2.578125 -7.875 C 2.578125 -7.550781 2.695312 -7.296875 2.9375 -7.109375 C 3.175781 -6.921875 3.578125 -6.785156 4.140625 -6.703125 L 6.171875 -6.359375 C 7.242188 -6.179688 8.050781 -5.835938 8.59375 -5.328125 C 9.144531 -4.816406 9.421875 -4.144531 9.421875 -3.3125 C 9.421875 -2.257812 9.003906 -1.414062 8.171875 -0.78125 C 7.335938 -0.15625 6.226562 0.15625 4.84375 0.15625 C 3.976562 0.15625 3.125 -0.0078125 2.28125 -0.34375 C 1.4375 -0.675781 0.691406 -1.132812 0.046875 -1.71875 Z M 0.046875 -1.71875 "/></g></g></g><g fill="#ffffff" fill-opacity="1"><g transform="translate(126.531696, 26.884198)"><g/></g></g><g fill="#ffffff" fill-opacity="1"><g transform="translate(129.643264, 26.884198)"><g><path d="M 0.96875 0 L 0.96875 -10.84375 L 3.21875 -10.84375 L 3.21875 -5.984375 L 7.953125 -10.84375 L 10.703125 -10.84375 L 5.46875 -5.6875 L 10.953125 0 L 7.9375 0 L 3.21875 -5.078125 L 3.21875 0 Z M 0.96875 0 "/></g></g></g></svg>